<svg xmlns="http://www.w3.org/2000/svg" width="150" height="50" viewBox="0,0,150,50">
    <path d="M15 25 C77 34,75 25,142 31" stroke="#222" fill="none"/>
    <path d="M17 4 C82 11,64 43,130 24" stroke="#222" fill="none"/>
    <path d="M12 31 C94 13,73 24,132 31" stroke="#555" fill="none"/>
    <path d="M2 9 C70 12,67 4,136 4" stroke="#444" fill="none"/>
    <path d="M12 32 C93 23,81 38,131 45" stroke="#555" fill="none"/>
    <path fill="#222"
          d="M116.01 37.91L116.09 37.99L116.09 37.99Q116.16 38.47 116.38 39.36L116.38 39.36Q116.53 39.99 116.75 40.82L116.75 40.82L116.80 40.87L116.74 40.81L116.85 40.92L108.09 39.92L107.98 39.81L108.00 39.83L99.40 42.05L99.41 42.06Q99.55 41.69 99.63 41.55L99.63 41.55Q99.69 41.44 99.70 41.48L99.70 41.48L99.79 41.56L99.68 41.45L107.35 33.10L107.32 33.06L112.96 23.44L112.90 23.38L112.99 23.46Q113.32 22.48 113.00 21.67L113.00 21.67Q112.78 21.11 112.27 20.63L112.27 20.63L112.24 20.61L112.06 20.43L108.99 19.39L109.01 19.42Q108.89 19.44 108.74 19.45L108.74 19.45Q108.58 19.46 108.41 19.46L108.41 19.46L108.38 19.43L108.49 19.54L105.54 20.28L105.56 20.30L105.51 20.26Q104.86 21.05 104.63 22.20L104.63 22.20Q104.43 23.17 104.54 24.38L104.54 24.38L104.63 24.47L104.53 24.37Q103.82 24.27 103.19 24.13L103.19 24.13Q102.32 23.93 101.62 23.67L101.62 23.67L101.55 23.60L101.55 23.60L101.60 23.65L101.24 20.70L101.27 20.73Q101.29 20.10 101.41 19.53L101.41 19.53Q101.58 18.74 101.93 18.08L101.93 18.08L101.78 17.93L101.71 17.87Q102.82 17.09 104.46 16.78L104.46 16.78Q105.57 16.56 106.92 16.56L106.92 16.56L106.89 16.54L108.66 16.55L108.63 16.52L108.65 16.54L111.98 16.78L111.95 16.76L116.63 19.69L116.50 19.55L116.46 19.51Q116.55 19.90 116.56 20.33L116.56 20.33Q116.57 20.64 116.54 20.97L116.54 20.97L116.62 21.05L116.63 21.06L116.60 21.03L116.27 22.22L116.34 22.29L107.05 37.17L107.16 37.28L107.11 37.23L109.99 37.18L109.99 37.19L110.00 37.19Q111.60 37.13 113.13 37.31L113.13 37.31Q114.59 37.49 115.98 37.88L115.98 37.88ZM115.38 17.03L115.47 17.11L115.36 17.01Q114.71 16.75 114.03 16.58L114.03 16.58Q113.07 16.35 112.07 16.30L112.07 16.30L112.10 16.34L110.29 16.14L108.60 16.07L108.66 16.13L108.70 16.17Q106.37 16.06 104.65 16.32L104.65 16.32Q103.13 16.55 102.10 17.07L102.10 17.07L101.96 16.93L101.95 16.92L102.09 17.06Q101.61 17.68 101.34 18.45L101.34 18.45Q101.02 19.36 101.02 20.49L101.02 20.49L100.96 20.43L101.05 20.51Q101.04 20.80 101.10 21.49L101.10 21.49Q101.16 22.40 101.34 24.00L101.34 24.00L101.36 24.02L101.28 23.94L101.28 23.94L102.98 24.46L102.98 25.49L103.04 25.55L103.08 25.59L103.07 26.53L103.07 26.53L106.87 26.94L106.84 26.91Q106.79 26.68 106.76 26.49L106.76 26.49Q106.74 26.29 106.74 26.13L106.74 26.13L106.70 26.08L106.67 26.06L108.03 23.02L107.92 22.91L110.97 21.71L110.95 21.69L112.57 21.98L112.46 21.87L112.75 22.77L112.80 22.82L112.70 22.72L112.74 23.56L112.69 23.51L112.73 23.55L106.94 33.03L107.06 33.15L99.43 41.39L99.34 41.30Q99.31 41.72 99.22 42.06L99.22 42.06Q99.12 42.51 98.92 42.83L98.92 42.83L98.81 42.71L98.88 42.78L102.03 41.40L102.09 41.46L102.08 41.46L100.23 43.34L100.40 43.50L100.04 44.06L100.06 44.07L100.09 44.11Q102.17 43.28 104.33 42.84L104.33 42.84Q107.34 42.21 110.53 42.32L110.53 42.32L110.43 42.23L110.43 42.23L110.46 42.26L120.62 44.69L119.65 42.57L119.66 42.59L118.86 40.57L118.83 40.54L116.77 39.58L116.75 39.57L116.85 39.66L116.25 37.50L116.36 37.61L116.29 37.55Q115.00 37.21 113.69 37.01L113.69 37.01Q112.75 36.86 111.80 36.78L111.80 36.78L111.90 36.88L111.91 36.89L111.79 36.78L118.10 24.05L118.26 21.12L118.14 21.00Q118.12 20.03 117.73 19.39L117.73 19.39Q117.43 18.87 116.89 18.57L116.89 18.57L116.91 18.59L116.89 18.59L116.88 18.60L116.97 18.69Q116.90 18.60 116.85 18.56L116.85 18.56Q116.79 18.51 116.75 18.51L116.75 18.51L116.83 18.59L116.84 18.60L116.69 18.45"/>
    <path d="M1 1 C58 38,63 7,133 28" stroke="#888" fill="none"/>
    <path fill="#111"
          d="M30.75 40.30L30.82 40.37L30.75 40.30L30.81 40.35L27.82 39.99L27.92 40.10Q27.28 39.59 26.89 38.99L26.89 38.99Q26.39 38.22 26.31 37.30L26.31 37.30L26.48 37.48L26.47 37.46L26.65 34.67L26.54 34.56L26.59 34.61L29.62 34.03L29.40 34.76L29.50 34.86Q29.31 35.87 29.73 36.49L29.73 36.49Q30.02 36.90 30.59 37.13L30.59 37.13L30.56 37.10L30.55 37.09L33.59 37.58L33.56 37.55L33.52 37.51Q34.26 37.42 34.69 37.35L34.69 37.35Q35.16 37.27 35.26 37.23L35.26 37.23L35.25 37.22L35.31 37.28Q35.73 37.13 36.12 36.92L36.12 36.92Q36.48 36.74 36.82 36.50L36.82 36.50L37.02 36.71L37.00 36.69L36.93 36.61L38.24 33.66L38.07 33.50L38.09 33.52L36.28 29.62L36.28 29.63L36.28 29.63L31.91 27.91L31.88 27.76L31.99 27.76L32.05 27.81L32.09 27.85Q32.27 27.81 32.62 27.77L32.62 27.77Q32.91 27.73 33.30 27.70L33.30 27.70L33.20 27.60L33.28 27.68Q34.41 27.61 35.35 27.14L35.35 27.14Q36.00 26.83 36.55 26.32L36.55 26.32L36.63 26.40L36.59 26.36L36.49 26.26L37.98 23.12L38.02 23.16L38.10 23.25Q38.19 23.11 38.23 22.95L38.23 22.95Q38.27 22.81 38.27 22.65L38.27 22.65L38.12 22.51L38.04 22.42L38.08 22.47L36.81 20.13L36.70 20.02L36.71 20.03Q36.18 19.69 35.57 19.52L35.57 19.52Q34.81 19.31 33.93 19.38L33.93 19.38L34.02 19.47L33.87 19.32L33.88 19.33L31.43 19.66L31.49 19.72L31.39 19.61L29.61 21.26L29.65 21.31L29.65 21.31L29.60 22.90L29.50 22.79Q28.96 22.67 28.12 22.41L28.12 22.41Q27.38 22.18 26.42 21.84L26.42 21.84L26.41 21.83L26.42 21.85Q26.37 21.21 26.34 20.69L26.34 20.69Q26.31 19.93 26.33 19.43L26.33 19.43L26.31 19.42L26.22 19.32L27.55 17.26L27.58 17.29Q28.28 16.97 29.04 16.81L29.04 16.81Q29.77 16.65 30.56 16.65L30.56 16.65L30.47 16.57L30.50 16.60L30.58 16.68Q32.26 16.62 33.96 16.68L33.96 16.68Q35.39 16.72 36.84 16.85L36.84 16.85L36.89 16.90L36.88 16.89L36.82 16.82Q39.79 17.03 40.89 18.45L40.89 18.45Q41.62 19.41 41.50 20.93L41.50 20.93L41.58 21.02L41.57 21.01L41.53 20.96L41.00 24.05L41.09 24.15L37.70 28.02L37.77 28.09L37.78 28.11L41.01 31.97L40.96 31.93L41.01 31.98Q41.11 32.52 41.17 33.27L41.17 33.27Q41.24 34.06 41.28 35.11L41.28 35.11L41.27 35.09L41.23 35.06L36.80 39.99L36.91 40.10ZM35.99 42.57L35.98 42.56L35.96 42.54Q36.24 42.55 37.01 42.58L37.01 42.58Q37.90 42.61 39.42 42.65L39.42 42.65L39.38 42.61L39.44 42.67L39.52 42.75Q40.29 42.75 41.05 42.61L41.05 42.61Q41.94 42.44 42.82 42.09L42.82 42.09L42.93 42.20L42.81 42.08L42.80 42.06Q43.34 41.66 43.61 41.09L43.61 41.09Q43.94 40.38 43.83 39.41L43.83 39.41L43.81 39.38L43.83 39.41L43.50 36.41L43.41 36.32L43.36 36.27Q43.09 34.36 42.57 32.97L42.57 32.97Q41.90 31.17 40.80 30.25L40.80 30.25L40.78 30.23L40.80 30.15L40.63 29.88L40.53 29.76L40.56 29.78L40.54 29.75L40.51 29.73Q41.50 29.08 42.18 27.61L42.18 27.61Q42.83 26.21 43.20 24.08L43.20 24.08L43.14 24.02L43.05 23.93L43.09 23.97Q43.14 23.81 43.18 23.56L43.18 23.56Q43.25 23.20 43.32 22.64L43.32 22.64L43.12 22.45L43.29 22.61L43.28 21.15L43.18 21.06L43.15 21.02L41.86 18.82L41.77 18.77L41.59 18.63L41.64 18.68L40.21 17.17L40.26 17.22L40.22 17.18Q39.60 16.92 38.35 16.71L38.35 16.71Q36.60 16.42 33.61 16.25L33.61 16.25L33.49 16.13L33.58 16.22L30.30 16.13L30.35 16.18L30.38 16.21Q29.54 16.23 28.72 16.42L28.72 16.42Q28.00 16.59 27.29 16.89L27.29 16.89L27.16 16.76L27.16 16.76L27.21 16.81Q26.69 17.12 26.39 17.61L26.39 17.61Q25.97 18.29 25.97 19.30L25.97 19.30L25.98 19.31L25.90 19.23L25.93 19.26Q25.99 19.13 26.07 19.73L26.07 19.73Q26.18 20.47 26.32 22.32L26.32 22.32L26.15 22.14L26.29 22.28L26.28 22.27Q26.33 22.20 26.84 22.35L26.84 22.35Q27.26 22.47 28.01 22.75L28.01 22.75L28.12 22.86L28.09 22.82L28.18 22.92L28.09 23.90L28.04 23.85L28.19 24.98L28.09 24.88Q29.03 25.13 30.00 25.28L30.00 25.28Q30.99 25.43 32.00 25.49L32.00 25.49L31.89 25.37L31.94 25.42L32.92 22.52L32.92 22.52L32.95 22.55L35.87 21.74L35.91 21.78L35.87 21.74L37.59 21.94L37.58 21.93Q37.54 21.93 37.54 21.97L37.54 21.97Q37.53 22.00 37.55 22.05L37.55 22.05L37.67 22.17L37.64 22.33L37.81 22.95L37.89 23.04L37.84 22.98L37.74 23.26L37.75 23.27L36.07 26.09L36.05 26.07L36.05 26.07L33.22 27.28L33.22 27.27L33.24 27.29L31.59 27.39L31.52 27.32L31.58 27.39Q31.63 27.56 31.68 27.78L31.68 27.78Q31.75 28.08 31.84 28.48L31.84 28.48L31.80 28.44L31.86 28.50L35.04 29.21L34.78 29.06L33.26 29.29L33.33 29.36L33.31 29.34L33.42 30.25L33.44 30.27L37.32 31.56L37.39 31.63Q37.48 31.78 37.58 32.16L37.58 32.16Q37.73 32.68 37.91 33.64L37.91 33.64L37.78 33.51L37.87 33.60L37.87 33.60L35.17 36.99L35.05 36.87Q34.10 37.02 33.46 37.09L33.46 37.09Q32.74 37.17 32.44 37.15L32.44 37.15L32.35 37.06L32.48 37.20L32.47 37.18Q32.27 37.18 32.00 37.16L32.00 37.16Q31.82 37.14 31.60 37.11L31.60 37.11L31.47 36.98L31.49 36.77L31.54 36.60L31.64 36.13L31.53 35.60L31.52 35.41L31.65 35.37L31.62 35.34L29.95 35.69L29.96 35.70L29.88 35.62L29.75 35.11L29.80 35.16L29.84 35.20Q29.80 35.05 29.78 34.93L29.78 34.93Q29.76 34.79 29.76 34.67L29.76 34.67L29.85 34.75L29.90 34.80L29.93 34.83L30.14 33.71L30.03 33.60L30.01 33.58L26.41 34.28L26.36 34.24L26.25 34.12Q26.30 34.42 26.29 34.86L26.29 34.86Q26.29 35.28 26.23 35.83L26.23 35.83L26.22 35.82L26.13 35.74Q26.12 36.38 26.12 36.86L26.12 36.86Q26.11 37.28 26.11 37.56L26.11 37.56L26.19 37.64L26.02 37.47L27.63 40.45L27.64 40.46L27.53 40.35Q28.30 41.52 29.84 42.06L29.84 42.06Q31.42 42.62 33.81 42.52L33.81 42.52L33.72 42.43L33.68 42.39L33.78 42.49"/>
    <path fill="#444"
          d="M72.49 39.43L72.53 39.46L72.58 39.51L72.45 39.38Q72.14 39.38 71.82 39.39L71.82 39.39Q71.47 39.40 71.12 39.42L71.12 39.42L71.18 39.48L71.14 39.44L69.73 39.52L69.88 39.67L69.85 39.63Q70.04 37.50 70.12 35.42L70.12 35.42Q70.18 34.03 70.18 32.66L70.18 32.66L70.27 32.75L70.19 32.67L67.45 32.71L67.58 32.84L67.56 32.81Q67.08 32.77 66.37 32.73L66.37 32.73Q65.70 32.69 64.81 32.65L64.81 32.65L64.69 32.54L64.86 32.71L64.86 32.70Q64.83 32.52 64.77 31.82L64.77 31.82Q64.71 31.11 64.61 29.87L64.61 29.87L64.71 29.97L64.71 29.96L70.09 30.36L70.07 30.34L69.40 23.35L69.53 23.48L71.10 23.56L72.77 23.60L72.69 23.52L72.53 30.44L72.43 30.34L72.49 30.40L77.87 30.07L77.90 30.10L77.71 32.57L77.74 32.61L77.75 32.61L76.72 32.69L76.69 32.66L76.61 32.58Q76.11 32.63 75.70 32.67L75.70 32.67Q75.38 32.70 75.11 32.71L75.11 32.71L75.16 32.77L75.15 32.76L75.04 32.65Q75.09 32.70 74.65 32.72L74.65 32.72Q74.04 32.76 72.49 32.76L72.49 32.76L72.44 32.71L72.36 36.06L72.50 36.19Q72.40 37.07 72.40 38.03L72.40 38.03Q72.41 38.69 72.45 39.38L72.45 39.38ZM78.26 29.55L78.37 29.66L78.26 29.54L78.29 29.58L74.50 29.94L74.42 29.86L74.45 29.88L75.20 24.96L75.11 24.87L73.03 25.11L73.31 23.15L73.28 23.12L73.33 23.17Q71.99 23.10 70.90 23.04L70.90 23.04Q69.76 22.98 68.89 22.92L68.89 22.92L68.98 23.01L68.96 22.99Q69.23 24.48 69.42 26.16L69.42 26.16Q69.62 27.97 69.72 29.99L69.72 29.99L69.74 30.01L69.82 30.09Q68.80 29.99 67.27 29.76L67.27 29.76Q65.94 29.57 64.21 29.28L64.21 29.28L64.28 29.35L64.23 29.30L64.26 29.33Q64.36 29.94 64.41 31.03L64.41 31.03Q64.45 31.89 64.45 33.05L64.45 33.05L64.40 33.01L65.24 33.09L65.99 33.07L66.05 33.14L65.98 33.07Q65.99 33.44 65.95 34.00L65.95 34.00Q65.91 34.52 65.83 35.20L65.83 35.20L65.86 35.23L69.81 34.95L69.93 35.07L69.36 40.02L69.33 39.99Q69.71 40.02 70.23 40.00L70.23 40.00Q70.81 39.99 71.55 39.93L71.55 39.93L71.53 39.91L71.58 39.96L71.49 39.86Q71.54 40.20 71.57 40.61L71.57 40.61Q71.61 41.23 71.58 42.02L71.58 42.02L71.52 41.95L71.60 42.04L71.53 41.96Q71.71 41.91 72.49 41.91L72.49 41.91Q73.50 41.90 75.55 41.99L75.55 41.99L75.52 41.96L75.48 41.91L75.59 42.03L74.34 34.88L74.52 35.05L79.85 35.44L79.86 35.44L79.92 35.51Q79.81 34.94 79.76 34.37L79.76 34.37Q79.73 33.99 79.73 33.61L79.73 33.61L79.67 33.54L79.69 31.66L79.64 31.61L79.74 31.71L78.95 31.72L78.47 31.64L78.13 31.70L78.05 31.62Q78.07 31.23 78.11 30.69L78.11 30.69Q78.15 30.17 78.21 29.49L78.21 29.49"/>
</svg>
