<svg xmlns="http://www.w3.org/2000/svg" xmlns:xlink="http://www.w3.org/1999/xlink" width="13" height="13"
     viewBox="0 0 512 512" fill="none" class="h-full w-full" id="iconWithBackground">
    <rect id="r4" width="512" height="512" x="0" y="0" rx="141" fill="url(#linearGradient-iconWithBackground)"
          stroke="#b4a7a7" stroke-width="0" stroke-opacity="100%" paint-order="stroke"/>
    <defs>
        <linearGradient id="linearGradient-iconWithBackground" gradientUnits="userSpaceOnUse"
                        gradientTransform="rotate(0)" style="transform-origin: center center;">
            <stop stop-color="#65b741"/>
            <stop offset="1" stop-color="#ffb534"/>
        </linearGradient>
        <radialGradient id="glare" cx="0" cy="0" r="1" gradientUnits="userSpaceOnUse"
                        gradientTransform="translate(256) rotate(90) scale(512)">
            <stop stop-color="white"/>
            <stop offset="1" stop-color="white" stop-opacity="0"/>
        </radialGradient>
        <clipPath id="clip">
            <use xlink:href="#r4"/>
        </clipPath>
    </defs>
    <svg xmlns="http://www.w3.org/2000/svg" width="372" height="372" viewBox="0 0 48 48" x="70" y="70">
        <g fill="currentColor" data-darkreader-inline-fill="" style="--darkreader-inline-fill: currentColor;">
            <path d="M20 15a1 1 0 0 1 1-1h8a1 1 0 1 1 0 2h-8a1 1 0 0 1-1-1Zm1 3a1 1 0 1 0 0 2h8a1 1 0 1 0 0-2h-8Zm-1 10a1 1 0 0 1 1-1h8a1 1 0 1 1 0 2h-8a1 1 0 0 1-1-1Zm1 3a1 1 0 1 0 0 2h8a1 1 0 1 0 0-2h-8Z"/>
            <path fill-rule="evenodd"
                  d="M10 27a1 1 0 0 1 1-1h5a1 1 0 0 1 1 1v5a1 1 0 0 1-1 1h-5a1 1 0 0 1-1-1v-5Zm2 1v3h3v-3h-3Z"
                  clip-rule="evenodd"/>
            <path d="M17.707 15.707a1 1 0 0 0-1.414-1.414L13 17.586l-1.293-1.293a1 1 0 0 0-1.414 1.414L13 20.414l4.707-4.707Z"/>
            <path fill-rule="evenodd"
                  d="M10 6a4 4 0 0 0-4 4v28a4 4 0 0 0 4 4h20a4 4 0 0 0 4-4V10a4 4 0 0 0-4-4H10Zm-2 4a2 2 0 0 1 2-2h20a2 2 0 0 1 2 2v28a2 2 0 0 1-2 2H10a2 2 0 0 1-2-2V10Zm28 6a3 3 0 1 1 6 0v20.303l-3 4.5l-3-4.5V16Zm3-1a1 1 0 0 0-1 1v2h2v-2a1 1 0 0 0-1-1Zm0 22.197l-1-1.5V20h2v15.697l-1 1.5Z"
                  clip-rule="evenodd"/>
        </g>
    </svg>
</svg>
